<?xml version="1.0" standalone="no"?>
<!DOCTYPE svg PUBLIC "-//W3C//DTD SVG 1.1//EN" "http://www.w3.org/Graphics/SVG/1.1/DTD/svg11.dtd" >
<svg xmlns="http://www.w3.org/2000/svg">
<metadata>
This is a custom SVG webfont generated by Font Squirrel.
Copyright   :  2000 2004 Adobe Systems Incorporated All Rights Reserved US Patent D454582
Designer    : Robert Slimbach and Carol Twombly
Foundry URL : httpwwwadobecomtype
</metadata>
<defs>
<font id="MyriadProSemibold" horiz-adv-x="1097" >
<font-face units-per-em="2048" ascent="1536" descent="-512" />
<missing-glyph horiz-adv-x="423" />
<glyph unicode=" "  horiz-adv-x="423" />
<glyph unicode="&#x09;" horiz-adv-x="423" />
<glyph unicode="&#xa0;" horiz-adv-x="423" />
<glyph unicode="!" horiz-adv-x="514" d="M102 137q0 70 43 115t111 45q70 0 112 -44t44 -116q0 -70 -43 -115t-113 -45h-2q-68 0 -111 45t-41 115zM123 1380h266l-37 -954h-192z" />
<glyph unicode="&#x22;" horiz-adv-x="757" d="M86 1417h231l-41 -526h-149zM440 1417h232l-41 -526h-150z" />
<glyph unicode="#" horiz-adv-x="1077" d="M76 381v160h192l37 260h-176v157h199l53 373h154l-52 -373h199l53 373h154l-51 -373h166v-157h-191l-35 -260h172v-158h-198l-52 -383h-157l53 383h-197l-53 -383h-156l54 381h-168zM424 541h199l34 260h-198z" />
<glyph unicode="$" d="M123 113l55 192q154 -90 320 -90q98 0 157.5 44t59.5 118q0 68 -53.5 116t-169.5 91q-176 63 -265.5 147t-89.5 219q0 133 88 227.5t242 120.5v201h168v-190q158 -4 283 -68l-56 -188q-152 70 -278 69q-100 0 -147.5 -42t-47.5 -101q0 -61 55.5 -103t192.5 -98 q174 -66 253 -154.5t79 -224t-91.5 -237t-254.5 -127.5v-211h-168v199q-207 6 -332 90z" />
<glyph unicode="%" horiz-adv-x="1720" d="M57 936q0 188 97.5 303t253.5 115h2q156 0 244.5 -107.5t88.5 -288.5q0 -201 -100 -312t-245.5 -111t-242 107.5t-98.5 293.5zM250 944q-2 -119 39 -192.5t114.5 -73.5t111.5 71.5t38 196.5q0 266 -150 266h-2q-72 0 -111.5 -75.5t-39.5 -192.5zM399 -25l775 1379h143 l-774 -1379h-144zM977 385q0 186 97 302t251 116h2q156 0 245 -107.5t89 -289.5q0 -201 -99.5 -311.5t-246.5 -110.5q-143 0 -240.5 107.5t-97.5 293.5zM1167 391q-2 -117 39 -191.5t115 -74.5q150 0 149 268q0 266 -149 266h-2q-72 0 -112 -75.5t-40 -192.5z" />
<glyph unicode="&#x26;" horiz-adv-x="1320" d="M63 367q0 258 267 399v6q-111 131 -111 277q0 141 103.5 247.5t283.5 106.5q147 0 244.5 -85t97.5 -224q0 -219 -284 -361l-2 -8l278 -315q86 133 125 366h225q-59 -340 -215 -518l238 -258h-295q-47 47 -109 115q-162 -137 -389 -138q-217 0 -337 115t-120 275zM303 408 q0 -104 70.5 -175t183.5 -71h2q139 0 229 94q-143 150 -344 383q-141 -96 -141 -231zM446 1073q0 -106 101 -221q94 59 139 112.5t45 120.5q0 61 -34.5 108.5t-102.5 47.5h-2q-68 0 -107 -49t-39 -119z" />
<glyph unicode="'" horiz-adv-x="405" d="M86 1417h231l-41 -526h-149z" />
<glyph unicode="(" horiz-adv-x="616" d="M127 586q2 485 248 833h184q-231 -344 -231 -833q0 -475 231 -828h-184q-248 349 -248 828z" />
<glyph unicode=")" horiz-adv-x="616" d="M57 -242q229 346 230 832q0 479 -230 829h183q250 -344 249 -831q-2 -483 -249 -830h-183z" />
<glyph unicode="*" horiz-adv-x="894" d="M61 930v176l310 -53l2 6l-205 254l156 90l118 -301h7l118 301l156 -88l-209 -258v-4l320 53v-176l-322 49v-6l211 -250l-158 -90l-121 303l-4 -2l-125 -303l-147 92l207 252v6z" />
<glyph unicode="+" horiz-adv-x="1220" d="M82 467v160h444v463h168v-463h445v-160h-445v-467h-168v467h-444z" />
<glyph unicode="," horiz-adv-x="483" d="M16 -248q94 264 138 541l264 20q-98 -330 -230 -544z" />
<glyph unicode="-" horiz-adv-x="645" d="M61 459v174h523v-174h-523z" />
<glyph unicode="." horiz-adv-x="483" d="M104 139.5q0 69.5 44.5 115.5t111.5 46q70 0 113 -45t43 -117q0 -70 -43 -116t-113 -46h-2q-68 0 -111 46.5t-43 116z" />
<glyph unicode="/" horiz-adv-x="690" d="M16 -82l500 1485h176l-499 -1485h-177z" />
<glyph unicode="0" d="M70 662q0 315 129 503.5t358 188.5q233 0 352 -185.5t119 -494.5q0 -326 -125 -511.5t-360 -185.5q-225 0 -348 187t-125 498zM324 662q-2 -238 59 -365t168 -127q111 0 168 129t57 371q0 492 -225 491q-104 0 -166.5 -127.5t-60.5 -371.5z" />
<glyph unicode="1" d="M193 1171l323 160h211v-1331h-244v1104h-4l-243 -123z" />
<glyph unicode="2" d="M88 0v154l158 145q256 238 358.5 370t104.5 257q0 98 -57.5 160.5t-180.5 62.5q-139 0 -285 -111l-73 179q170 137 409 137q211 0 325 -115t114 -289q0 -162 -99.5 -306t-300.5 -331l-117 -100v-4h547v-209h-903z" />
<glyph unicode="3" d="M82 70l57 190q137 -82 303 -82q135 0 203 62.5t66 150.5q0 111 -87 168t-214 57h-117v185h113q102 0 183 47t81 139q0 72 -54.5 119t-158.5 47q-145 0 -273 -84l-57 182q61 43 165.5 73t217.5 30q197 0 306.5 -94.5t109.5 -231.5q0 -106 -62.5 -187t-183.5 -124v-4 q127 -23 210 -112t83 -220q0 -174 -139.5 -289t-378.5 -115q-234 1 -373 93z" />
<glyph unicode="4" d="M41 338v164l543 829h297v-803h172v-190h-172v-338h-238v338h-602zM281 528h362v363q0 127 8 231h-8q-61 -125 -117 -225l-243 -365z" />
<glyph unicode="5" d="M86 55l51 191q129 -70 293 -70q119 0 204 64.5t85 179.5q0 119 -93.5 185.5t-285.5 66.5q-102 0 -182 -13l88 672h688v-209h-512l-39 -266q47 6 96 6q193 0 324 -86q174 -111 174 -338q0 -195 -149.5 -328t-389.5 -133q-213 0 -352 78z" />
<glyph unicode="6" d="M66 551q0 377 231 598q184 172 473 197q70 8 127 4l2 -197q-78 0 -129 -6q-197 -23 -308.5 -130.5t-137.5 -258.5h6q111 129 299 129q176 0 291.5 -118t115.5 -316q0 -197 -131 -336.5t-338 -139.5q-236 0 -368.5 160t-132.5 414zM315 485q4 -139 69 -229t181 -90h2 q96 0 154.5 75.5t58.5 196.5q0 119 -61.5 191.5t-169.5 72.5q-70 0 -128.5 -37.5t-88.5 -99.5q-17 -33 -17 -80z" />
<glyph unicode="7" d="M109 1122v209h895v-162l-564 -1169h-266l561 1118v4h-626z" />
<glyph unicode="8" d="M70 342q0 236 249 346v6q-203 98 -202 295q0 162 127 263.5t317 101.5q201 0 309.5 -100.5t108.5 -235.5q0 -90 -50 -170t-155 -131v-6q115 -43 184.5 -130t69.5 -206q0 -178 -135 -288t-350 -110q-221 0 -347 107.5t-126 257.5zM328 371q-4 -88 58.5 -151.5t164.5 -63.5 q98 0 159.5 56t61.5 142q0 180 -248 250q-94 -27 -145 -88t-51 -145zM356 999q0 -150 217 -208q72 20 119 74.5t47 125.5q0 78 -48 133.5t-142 55.5q-90 0 -141.5 -52.5t-51.5 -128.5z" />
<glyph unicode="9" d="M72 879q0 195 136 335t345 140q225 0 350 -158t125 -410q0 -397 -231 -618q-176 -164 -455 -182q-78 -8 -152 -4v198q47 -4 140 4q160 12 270 103q133 109 170 295l-4 2q-106 -119 -289 -119q-176 0 -290.5 116t-114.5 298zM322 893q2 -106 60 -175t159 -69 q147 0 215 111q14 29 14 71q2 145 -55.5 240.5t-173.5 95.5h-2q-94 0 -155.5 -76.5t-61.5 -197.5z" />
<glyph unicode=":" horiz-adv-x="483" d="M104 137q0 70 44.5 116t111.5 46q70 0 112 -45t44 -117q0 -70 -43 -115t-113 -45h-2q-68 0 -111 46t-43 114zM104 827.5q0 69.5 44.5 115.5t112 46t110.5 -45t45 -117q0 -70 -43 -114.5t-113 -44.5h-2q-68 0 -111 45t-43 114.5z" />
<glyph unicode=";" horiz-adv-x="483" d="M16 -248q96 264 138 541l264 20q-104 -340 -230 -544zM119 827q0 72 43 117t110.5 45t110.5 -45t45 -117q0 -70 -43 -114.5t-113 -44.5h-2q-68 0 -110.5 44.5t-40.5 114.5z" />
<glyph unicode="&#x3c;" horiz-adv-x="1220" d="M125 471v147l971 472v-185l-770 -358v-4l770 -361v-182z" />
<glyph unicode="=" horiz-adv-x="1220" d="M82 262v160h1057v-160h-1057zM82 676v162h1057v-162h-1057z" />
<glyph unicode="&#x3e;" horiz-adv-x="1220" d="M125 0v182l782 361v4l-782 360v183l971 -467v-156z" />
<glyph unicode="?" horiz-adv-x="876" d="M100 1321q131 84 322 84q180 0 275.5 -89t95.5 -222q0 -70 -30 -137.5t-59.5 -106.5t-89.5 -107q-115 -135 -108 -276l2 -43h-221l-4 51q-16 170 123 336q129 156 129 246q0 68 -42 105.5t-126 39.5q-125 0 -205 -61zM236 137q0 70 44 115t111 45q70 0 112 -44t44 -116 q0 -70 -43 -115t-113 -45h-2q-68 0 -110.5 46t-42.5 114z" />
<glyph unicode="@" horiz-adv-x="1546" d="M96 430q0 324 211 553t547 229q268 0 438 -166.5t170 -424.5q0 -221 -108.5 -354.5t-268.5 -133.5q-72 0 -117.5 42t-47.5 126h-7q-100 -168 -274 -168q-98 0 -162.5 70.5t-64.5 191.5q0 197 136 339.5t347 142.5q139 0 233 -48l-65 -374q-37 -201 55 -201 q80 -4 144.5 93t64.5 263q0 219 -130 355.5t-361 136.5q-250 0 -425 -181.5t-175 -476.5q0 -252 146 -398t378 -146q174 0 303 67l35 -104q-162 -78 -371 -78q-262 0 -446.5 177t-184.5 468zM588 414q0 -66 29.5 -104t84.5 -38q70 0 131.5 75t77.5 169l37 211q-41 12 -82 12 q-115 0 -196.5 -97t-81.5 -228z" />
<glyph unicode="A" horiz-adv-x="1302" d="M43 0l442 1380h322l448 -1380h-270l-125 391h-438l-119 -391h-260zM463 582h354l-108 340q-18 57 -70 258h-4q-2 -6 -26.5 -107.5t-39.5 -150.5z" />
<glyph unicode="B" horiz-adv-x="1179" d="M145 4v1358q139 29 367 29q268 0 395 -88q143 -86 144 -259q0 -98 -59.5 -178t-170.5 -121v-4q119 -31 199 -118.5t80 -223.5q0 -176 -133 -284q-147 -129 -512 -129q-167 0 -310 18zM395 182q33 -6 133 -6q133 0 219.5 56.5t86.5 175.5q0 115 -87.5 170t-226.5 55h-125 v-451zM395 817h129q129 0 201 54.5t72 144.5q0 188 -258 188q-98 0 -144 -10v-377z" />
<glyph unicode="C" horiz-adv-x="1204" d="M74 674q0 334 206.5 531.5t530.5 197.5q217 0 336 -62l-55 -200q-121 53 -271 53q-217 0 -350 -133t-133 -375q0 -229 128 -363.5t353 -134.5q166 0 275 52l41 -199q-123 -63 -357 -64q-326 0 -515 190t-189 507z" />
<glyph unicode="D" horiz-adv-x="1398" d="M145 4v1358q172 29 402 29q373 0 563 -160q215 -176 215 -508q0 -354 -215 -549q-207 -188 -625 -188q-193 0 -340 18zM397 193q35 -6 140 -7h7q242 0 378 133q137 135 137 396q2 229 -126 354t-364 125q-111 0 -172 -14v-987z" />
<glyph unicode="E" horiz-adv-x="1054" d="M145 0v1380h803v-206h-551v-357h521v-205h-521v-405h582v-207h-834z" />
<glyph unicode="F" horiz-adv-x="1042" d="M145 0v1380h797v-206h-545v-381h508v-207h-508v-586h-252z" />
<glyph unicode="G" horiz-adv-x="1363" d="M74 678q0 326 212 521.5t556 195.5q231 0 366 -66l-55 -203q-137 59 -313 60q-227 0 -364.5 -130t-137.5 -366q0 -231 131 -365.5t348 -134.5q133 0 191 29v344h-244v199h487v-699q-209 -78 -444 -77q-348 0 -541 184q-193 183 -192 495v13z" />
<glyph unicode="H" horiz-adv-x="1376" d="M145 0v1380h252v-553h584v553h252v-1380h-252v608h-584v-608h-252z" />
<glyph unicode="I" horiz-adv-x="540" d="M145 0v1380h252v-1380h-252z" />
<glyph unicode="J" horiz-adv-x="802" d="M2 10l31 203q82 -25 155 -25q115 0 173.5 68t58.5 238v886h252v-895q0 -272 -120 -390t-339 -118q-125 0 -211 33z" />
<glyph unicode="K" horiz-adv-x="1191" d="M145 0v1380h250v-635h6l101 150l360 485h312l-476 -587l506 -793h-295l-391 633l-123 -148v-485h-250z" />
<glyph unicode="L" horiz-adv-x="1009" d="M145 0v1380h252v-1169h568v-211h-820z" />
<glyph unicode="M" horiz-adv-x="1693" d="M111 0l92 1380h332l180 -555q72 -238 127 -479h6q63 256 137 481l191 553h327l80 -1380h-246l-26 563q-17 359 -17 543v39h-6q-70 -266 -164 -531l-200 -598h-195l-184 590q-84 279 -139 539h-5q-12 -362 -24 -590l-31 -555h-235z" />
<glyph unicode="N" horiz-adv-x="1384" d="M145 0v1380h287l356 -592q133 -223 236 -462h4q-23 254 -22 573v481h233v-1380h-260l-361 608q-158 268 -247 475l-6 -2q12 -213 12 -587v-494h-232z" />
<glyph unicode="O" horiz-adv-x="1441" d="M74 680q0 319 182 521t473 202q295 0 468 -197.5t173 -500.5q0 -340 -184.5 -534t-476.5 -194q-289 0 -462 197t-173 506zM340 684q0 -217 103.5 -361.5t279.5 -144.5q178 0 279.5 146.5t101.5 369.5q0 209 -100.5 358.5t-280.5 149.5t-281.5 -147.5t-101.5 -370.5z" />
<glyph unicode="P" horiz-adv-x="1144" d="M145 0v1362q158 29 385 29q272 0 408 -113q135 -111 135 -305q0 -201 -119 -314q-147 -147 -436 -147q-80 0 -123 8v-520h-250zM395 719q39 -10 123 -10q141 0 222 66.5t81 187.5q0 115 -73.5 175t-206.5 60q-92 0 -146 -12v-467z" />
<glyph unicode="Q" horiz-adv-x="1441" d="M74 678q0 322 182 523.5t477 201.5q293 0 465 -197.5t172 -498.5q0 -242 -98 -408t-258 -229v-9q145 -41 364 -84l-71 -198q-276 76 -539 178q-55 18 -90 20q-256 12 -430 197t-174 504zM340 684q-2 -215 101.5 -360.5t279.5 -145.5h2q176 0 278.5 146.5t102.5 369.5 q0 211 -100.5 359.5t-278.5 148.5q-182 0 -284.5 -149.5t-100.5 -368.5z" />
<glyph unicode="R" horiz-adv-x="1165" d="M145 0v1362q166 29 381 29q295 0 426 -111q119 -100 119 -276q0 -125 -71.5 -216.5t-178.5 -130.5v-6q137 -51 193 -266q86 -342 108 -385h-260q-35 68 -92 326q-29 133 -84 185t-164 56h-127v-567h-250zM395 752h150q127 0 201.5 62.5t74.5 164.5q0 111 -71.5 166 t-198.5 55q-106 0 -156 -12v-436z" />
<glyph unicode="S" horiz-adv-x="1062" d="M84 66l55 208q154 -88 334 -88q119 0 185.5 51.5t66.5 137.5q0 78 -56.5 130t-189.5 99q-373 135 -373 402q0 172 133.5 284.5t354.5 112.5q197 0 332 -70l-62 -203q-121 66 -274 66q-113 0 -171.5 -49t-58.5 -117q0 -76 58.5 -123t206.5 -104q182 -70 269 -166t87 -244 q0 -178 -135 -297t-389 -119q-104 0 -208 26t-165 63z" />
<glyph unicode="T" horiz-adv-x="1075" d="M16 1169v211h1043v-211h-397v-1169h-252v1169h-394z" />
<glyph unicode="U" horiz-adv-x="1363" d="M143 590v790h252v-805q0 -197 76 -296t207 -99q291 0 291 395v805h252v-788q0 -309 -146.5 -462t-404.5 -153q-250 0 -388.5 149t-138.5 464z" />
<glyph unicode="V" horiz-adv-x="1230" d="M14 1380h275l188 -626q86 -285 135 -504h4q49 223 142 500l200 630h269l-477 -1380h-289z" />
<glyph unicode="W" horiz-adv-x="1779" d="M31 1380h268l131 -626q53 -258 90 -482h4q16 113 101 484l149 624h264l138 -635q55 -264 84 -466h4q31 184 94 477l143 624h256l-371 -1380h-270l-143 649q-55 250 -76 438h-4q-39 -233 -92 -438l-160 -649h-272z" />
<glyph unicode="X" horiz-adv-x="1216" d="M41 0l410 698l-394 682h289l150 -284q53 -100 114 -232h4q51 119 109 232l147 284h289l-403 -673l420 -707h-291l-150 274q-84 150 -137 261h-6q-39 -92 -125 -261l-137 -274h-289z" />
<glyph unicode="Y" horiz-adv-x="1177" d="M23 1380h286l166 -354q76 -166 119 -274h4q43 109 121 274l166 354h284l-458 -798v-582h-252v575z" />
<glyph unicode="Z" horiz-adv-x="1159" d="M53 0v139l707 1026v6h-643v209h970v-147l-696 -1016v-8h707v-209h-1045z" />
<glyph unicode="[" horiz-adv-x="616" d="M152 -229v1634h399v-145h-213v-1344h213v-145h-399z" />
<glyph unicode="\" horiz-adv-x="686" d="M14 1403h176l480 -1485h-176z" />
<glyph unicode="]" horiz-adv-x="616" d="M66 -84h210v1344h-210v145h397v-1634h-397v145z" />
<glyph unicode="^" horiz-adv-x="1220" d="M102 373l428 958h160l428 -958h-188l-318 760h-6l-317 -760h-187z" />
<glyph unicode="_" horiz-adv-x="1024" d="M0 -154h1024v-102h-1024v102z" />
<glyph unicode="`" horiz-adv-x="614" d="M25 1430h247l179 -304h-177z" />
<glyph unicode="a" horiz-adv-x="1040" d="M66 274q0 186 155 283q152 94 425 94h11v17q0 68 -43 121t-159 53q-152 0 -269 -74l-49 164q143 88 361 88q221 0 316 -118t95 -302v-360q0 -154 15 -240h-228l-16 111h-6q-104 -133 -295 -134q-143 0 -228 88t-85 209zM315 301q0 -70 40 -106.5t104 -36.5q72 0 125 40 t71 97q8 25 9 55v137q-14 0 -28 1q-321 0 -321 -187z" />
<glyph unicode="b" horiz-adv-x="1198" d="M127 0q8 135 8 281v1173h252v-594h4q102 160 320 160q184 0 300.5 -140.5t114.5 -365.5q0 -254 -134 -395.5t-318 -141.5q-215 0 -316 173h-4l-12 -150h-215zM387 412q0 -31 6 -60q20 -76 82 -126t141 -50q119 0 186.5 88t67.5 240q0 139 -65.5 229t-186.5 90 q-78 0 -140 -51t-83 -133q-8 -37 -8 -66v-161z" />
<glyph unicode="c" horiz-adv-x="919" d="M72 487.5q0 231.5 149.5 382t405.5 150.5q141 0 243 -47l-45 -189q-86 39 -190 39q-141 0 -224 -92t-81 -231q0 -150 86 -236t219 -86q104 0 199 39l34 -186q-115 -53 -282 -54q-233 0 -373.5 139.5t-140.5 371z" />
<glyph unicode="d" horiz-adv-x="1189" d="M72 495q0 236 128 379q130 145 318 146q98 0 172 -37t109 -94h4v565h252v-1173q0 -145 8 -281h-225l-11 158h-4q-45 -84 -131 -132.5t-194 -48.5q-182 0 -304 141.5t-122 376.5zM328 496q0 -139 66.5 -227.5t183.5 -88.5q78 0 138 49.5t79 128.5q8 31 8 74v150 q0 35 -6 65q-18 78 -75.5 128t-141.5 50q-119 0 -185.5 -92t-66.5 -237z" />
<glyph unicode="e" horiz-adv-x="1056" d="M72 483q0 221 130 379t357 158q117 0 204 -44t134 -118t69.5 -154.5t22.5 -168.5q0 -61 -8 -107h-668q4 -127 91.5 -192.5t216.5 -65.5q158 0 276 45l37 -174q-158 -63 -348 -64q-240 0 -377 137.5t-137 368.5zM313 604h439q2 90 -46.5 167t-160.5 77q-106 0 -164 -76 t-68 -168z" />
<glyph unicode="f" horiz-adv-x="653" d="M29 809v188h135v43q0 225 121 340q102 96 260 97q92 0 162 -25l-19 -195q-47 18 -106 19q-168 0 -168 -227v-52h219v-188h-217v-809h-252v809h-135z" />
<glyph unicode="g" horiz-adv-x="1173" d="M72 494q0 238 133 382t319 144q199 0 289 -156h4l10 133h220q-8 -135 -9 -286v-566q0 -319 -147 -452q-137 -121 -385 -121q-219 0 -348 80l55 190q131 -76 291 -75q131 0 209 73.5t78 227.5v86h-5q-96 -147 -290 -148q-186 0 -305 137.5t-119 350.5zM328 502 q0 -133 64.5 -220t178.5 -87q70 0 126.5 42t78.5 109q10 45 10 90v162q0 41 -8 68q-20 72 -73.5 116.5t-131.5 44.5q-109 0 -177 -87.5t-68 -237.5z" />
<glyph unicode="h" horiz-adv-x="1171" d="M135 0v1454h254v-594h4q49 76 125 115q78 45 172 45q145 0 246.5 -105.5t101.5 -326.5v-588h-252v559q0 254 -192 254q-70 0 -122 -40t-73 -101q-10 -25 -10 -76v-596h-254z" />
<glyph unicode="i" horiz-adv-x="524" d="M121 1276q0 59 40 98t101 39q63 0 101 -39t40 -98q0 -57 -38.5 -96t-104.5 -39q-61 0 -100 39t-39 96zM135 0v997h254v-997h-254z" />
<glyph unicode="j" horiz-adv-x="552" d="M-86 -240q133 10 188 72q37 37 51.5 111.5t14.5 234.5v819h252v-891q0 -297 -129 -425q-125 -117 -352 -117zM154 1276q0 59 38.5 98t102 39t101.5 -39t38 -98q0 -57 -39 -96t-104 -39q-61 0 -99 39t-38 96z" />
<glyph unicode="k" horiz-adv-x="1042" d="M135 0v1454h252v-895h4q45 70 80 117l242 321h303l-369 -407l422 -590h-309l-287 440l-86 -100v-340h-252z" />
<glyph unicode="l" horiz-adv-x="526" d="M135 0v1454h254v-1454h-254z" />
<glyph unicode="m" horiz-adv-x="1736" d="M127 997h217l10 -147h6q106 170 308 170q96 0 169.5 -50t106.5 -134h4q51 82 123 125q84 59 201 59q141 0 237.5 -105.5t96.5 -326.5v-588h-246v551q0 264 -178 264q-61 0 -108.5 -38t-67.5 -95q-12 -49 -13 -84v-598h-245v578q0 109 -44.5 173t-128.5 64 q-66 0 -113.5 -43t-66.5 -100q-14 -35 -14 -82v-590h-246v700q0 182 -8 297z" />
<glyph unicode="n" horiz-adv-x="1171" d="M127 997h221l12 -149h7q37 68 119.5 120t197.5 52q147 0 250.5 -104.5t103.5 -323.5v-592h-252v563q0 115 -46 183.5t-144 68.5q-72 0 -123 -43t-74 -104q-10 -29 -10 -82v-586h-254v700q0 182 -8 297z" />
<glyph unicode="o" horiz-adv-x="1155" d="M72 492q0 242 143 385t373 143q221 0 358 -142.5t137 -369.5q0 -258 -151.5 -394.5t-360.5 -136.5q-217 0 -358 139.5t-141 375.5zM332 498q0 -147 67.5 -242.5t180.5 -95.5q106 0 174.5 95t68.5 247q0 133 -61.5 233.5t-179.5 100.5q-125 0 -187.5 -99.5t-62.5 -238.5z " />
<glyph unicode="p" horiz-adv-x="1198" d="M127 997h221l12 -153h5q115 176 342 176q176 0 297.5 -140.5t121.5 -367.5q0 -254 -134 -394.5t-320 -140.5q-92 0 -167 36t-114 98h-4v-517h-252v1072q0 143 -8 331zM387 418q0 -39 8 -70q18 -78 80 -127t141 -49q119 0 186.5 90t67.5 240q0 137 -65.5 228t-181.5 91 q-80 0 -143.5 -52t-82.5 -134q-10 -35 -10 -64v-153z" />
<glyph unicode="q" horiz-adv-x="1189" d="M72 483q0 256 135 396.5t311 140.5q205 0 291 -154l4 -2l6 133h244q-8 -180 -8 -288v-1115h-252v543h-4q-98 -160 -310 -160q-174 0 -295.5 139.5t-121.5 366.5zM328 496q0 -141 65.5 -230.5t181.5 -89.5q76 0 134.5 45t81.5 121q12 37 12 78v166q0 33 -6 61 q-18 74 -75.5 124t-139.5 50q-119 0 -186.5 -90t-67.5 -235z" />
<glyph unicode="r" horiz-adv-x="729" d="M127 997h219l8 -190h8q35 102 112 157.5t161 55.5q29 0 59 -6v-238q-41 8 -73 8q-88 0 -148.5 -52t-77.5 -138q-8 -45 -8 -78v-516h-252v676q0 200 -8 321z" />
<glyph unicode="s" horiz-adv-x="854" d="M74 49l49 182q119 -72 256 -71q160 0 160 110q0 51 -36 82t-128 64q-279 96 -275 291q0 135 103.5 224t273.5 89q154 0 264 -59l-49 -179q-100 57 -211 58q-66 0 -102.5 -29t-36.5 -76t38 -75.5t136 -63.5q135 -49 199.5 -122t66.5 -183q0 -139 -106.5 -226.5 t-298.5 -87.5q-174 0 -303 72z" />
<glyph unicode="t" horiz-adv-x="718" d="M35 809v188h143v185l246 71v-256h240v-188h-240v-440q0 -94 29.5 -139.5t99.5 -45.5q55 0 98 13l4 -193q-68 -27 -182 -27q-139 0 -217 84t-78 279v469h-143z" />
<glyph unicode="u" horiz-adv-x="1165" d="M131 412v585h252v-542q0 -272 186 -273q70 0 120 40t73 95q14 39 14 78v602h252v-698q0 -135 8 -299h-221l-12 152h-4q-104 -174 -320 -175q-152 0 -250 104t-98 331z" />
<glyph unicode="v" horiz-adv-x="1040" d="M23 997h272l162 -505q37 -113 67 -250h6q20 88 68 250l158 505h266l-381 -997h-248z" />
<glyph unicode="w" horiz-adv-x="1533" d="M29 997h258l104 -452q43 -205 64 -324h4q16 88 82 322l129 454h204l125 -442q49 -190 80 -334h4q20 137 66 334l111 442h247l-313 -997h-233l-119 406q-45 152 -76 319h-4q-23 -139 -76 -319l-127 -406h-235z" />
<glyph unicode="x" horiz-adv-x="1011" d="M10 0l346 508l-333 489h280l119 -188l90 -154h6l86 158l111 184h274l-334 -479l340 -518h-284l-123 199q-39 63 -90 161h-4q-31 -61 -91 -161l-114 -199h-279z" />
<glyph unicode="y" horiz-adv-x="1024" d="M16 997h277l180 -534q27 -80 55 -195h7l26 97l27 100l155 532h271l-250 -680q-102 -276 -180 -419.5t-168 -221.5q-123 -111 -264 -129l-58 213q76 18 148 70q84 55 137 158q16 29 16 45q0 20 -14 49z" />
<glyph unicode="z" horiz-adv-x="921" d="M41 0v145l375 480l147 168v4h-485v200h792v-153l-366 -469q-98 -119 -148 -170v-4h527v-201h-842z" />
<glyph unicode="{" horiz-adv-x="616" d="M59 522v133q96 2 128 42t32 104q0 51 -12 166q-14 96 -14 166q0 137 80.5 204.5t224.5 67.5h59v-145h-37q-143 -2 -143 -160q0 -51 14 -131q12 -135 12 -148q2 -190 -163 -229v-4q166 -39 163 -232q0 -14 -12 -149q-14 -80 -14 -129q0 -160 143 -162h37v-145h-59 q-305 0 -305 280q0 68 14 164q12 111 12 162q0 143 -160 145z" />
<glyph unicode="|" horiz-adv-x="538" d="M178 -512v2048h182v-2048h-182z" />
<glyph unicode="}" horiz-adv-x="616" d="M59 -84h37q141 2 142 162q0 39 -12.5 129t-12.5 149q-2 193 162 232v4q-164 39 -162 229q0 57 12.5 147.5t12.5 131.5q0 158 -142 160h-37v145h60q143 0 224 -67.5t81 -204.5q0 -37 -14 -166q-14 -133 -15 -166q0 -63 33 -103.5t127 -42.5v-133q-160 -2 -160 -145 q0 -33 14.5 -162t14.5 -164q0 -281 -305 -280h-60v145z" />
<glyph unicode="~" horiz-adv-x="1220" d="M92 410q-2 174 72 262t196 88q66 0 125.5 -21.5t161.5 -74.5q160 -82 223 -82q92 0 95 168h163q8 -184 -64.5 -268.5t-191.5 -84.5q-102 0 -290 97l-44 22q-32 16 -42.5 22.5t-35 17.5t-36.5 14l-30 8q-17 4 -32 4q-98 0 -106 -172h-164z" />
<glyph unicode="&#xa1;" horiz-adv-x="514" d="M102 846q0 72 43 116t113 44h2q68 0 110 -44t42 -116q0 -70 -42 -115t-112 -45q-68 0 -112 46t-44 114zM125 -393l37 948h192l37 -948h-266z" />
<glyph unicode="&#xa2;" d="M145 670q0 193 112 333t304 175v200h168v-192q109 -2 209 -45l-45 -189q-86 43 -197 43q-135 0 -215 -89t-80 -226q0 -147 83 -230t208 -83q119 0 217 43l35 -183q-80 -45 -215 -53v-201h-168v205q-188 23 -301 150q-115 135 -115 342z" />
<glyph unicode="&#xa3;" d="M109 0v137q98 45 164.5 133t66.5 193q0 59 -8 110h-205v175h176q-20 115 -20 190q0 188 119.5 302t312.5 114q147 0 233 -51l-45 -191q-72 41 -178.5 41t-156.5 -61.5t-50 -159.5q0 -76 23 -184h286v-175h-264q4 -119 -14 -182q-29 -100 -119 -180v-4h576v-207h-897z" />
<glyph unicode="&#xa4;" d="M47 1077l117 121l149 -166q92 80 236 80h2q137 0 235 -78l152 164l117 -119l-170 -153q68 -102 67 -240q0 -147 -71 -248l163 -159l-114 -115l-146 168q-94 -84 -239.5 -84t-235.5 80l-141 -164l-115 115l160 153q-74 100 -74 246q0 137 74 248zM332 680 q0 -123 66.5 -191.5t146.5 -68.5q86 0 149.5 67.5t63.5 196.5q0 106 -58.5 181t-152.5 75h-2q-94 0 -153.5 -73.5t-59.5 -186.5z" />
<glyph unicode="&#xa5;" d="M16 1331h273l172 -370q16 -35 86 -205h4q68 168 86 209l178 366h266l-358 -600h254v-125h-322v-139h322v-125h-322v-342h-235v342h-320v125h320v139h-320v125h256z" />
<glyph unicode="&#xa6;" horiz-adv-x="538" d="M178 356h182v-716h-182v716zM178 664v716h182v-716h-182z" />
<glyph unicode="&#xa7;" horiz-adv-x="1110" d="M104 670q0 68 41 134t121 111q-76 57 -80 179q0 143 118 225t298 82q174 0 305 -64l-45 -157q-115 61 -260 61q-88 0 -142 -33.5t-54 -89.5q0 -57 55 -93t180 -75q178 -55 271.5 -130t93.5 -212q0 -150 -142 -248q86 -72 86 -186q0 -111 -68.5 -185.5t-160.5 -103 t-197 -28.5q-223 0 -356 88l55 155q133 -84 293 -84q92 0 148.5 35t56.5 99q0 59 -51.5 98t-180.5 82q-190 61 -287.5 135t-97.5 205zM303 709q0 -106 197 -174q199 -72 237 -93q68 45 68 129q0 109 -160 166q-254 98 -260 103q-82 -53 -82 -129v-2z" />
<glyph unicode="&#xa8;" horiz-adv-x="614" d="M-23 1278q0 53 37 90t92 37q51 0 86 -36t35 -91q0 -51 -34.5 -88t-88.5 -37h-2q-53 0 -89 37t-36 88zM387 1278q0 53 36 90t89 37t88 -36t35 -91q0 -51 -35 -88t-88 -37h-2q-53 0 -88 37t-35 88z" />
<glyph unicode="&#xa9;" horiz-adv-x="1386" d="M70 696q0 262 182 446.5t444 184.5h2q258 0 438.5 -184.5t180.5 -446.5q0 -264 -180.5 -449.5t-440.5 -185.5q-262 0 -444 185.5t-182 449.5zM188 692q0 -221 147.5 -374.5t358.5 -153.5q211 -2 357.5 152.5t146.5 377.5q0 221 -146.5 376t-357.5 155h-2 q-211 0 -357.5 -155t-146.5 -378zM350 684q0 170 117 275.5t278 105.5q72 0 137.5 -17.5t88.5 -37.5l-27 -99q-76 47 -199 47q-127 0 -197.5 -72.5t-70.5 -195.5q0 -119 73 -194.5t195 -75.5q129 0 207 51l29 -92q-96 -66 -254 -66q-174 0 -275.5 104.5t-101.5 266.5z" />
<glyph unicode="&#xaa;" horiz-adv-x="743" d="M68 733q0 113 108.5 175.5t298.5 60.5v16q0 18 -8 37.5t-41 41t-88 21.5q-109 0 -182 -53l-39 113q104 66 253.5 65.5t216 -80t66.5 -206.5v-219q0 -94 13 -160h-162l-12 76h-5q-82 -86 -204 -86q-98 0 -156.5 56t-58.5 142zM244 745q0 -41 29.5 -65.5t72.5 -24.5 q82 0 119 68q14 23 14 49v90q-235 4 -235 -117z" />
<glyph unicode="&#xab;" horiz-adv-x="909" d="M55 516l252 385h187l-258 -385l258 -385h-185zM426 516l252 385h184l-256 -385l256 -385h-184z" />
<glyph unicode="&#xac;" horiz-adv-x="1220" d="M82 684v160h1057v-613h-168v453h-889z" />
<glyph unicode="&#xad;" horiz-adv-x="595" d="M61 459v174h523v-174h-523z" />
<glyph unicode="&#xae;" horiz-adv-x="903" d="M96 1057q0 143 104.5 243.5t252.5 100.5h2q147 0 249.5 -100.5t102.5 -243.5q0 -145 -102.5 -246.5t-251.5 -101.5q-147 0 -252 101.5t-105 246.5zM195 1054.5q0 -110.5 73.5 -188.5t184.5 -78q109 -2 182.5 76t73.5 190.5t-74 190.5t-182 78h-2q-109 0 -182.5 -79 t-73.5 -189.5zM313 885v329q80 12 138 13q86 0 122 -27q37 -23 37 -72q0 -55 -73 -75v-4q49 -16 63 -84q12 -55 25 -80h-101q-10 12 -24 76q-8 49 -62 49h-35v-125h-90zM406 1073h34q68 0 68 43q0 45 -64 45q-8 0 -21 -1t-17 -1v-86z" />
<glyph unicode="&#xaf;" horiz-adv-x="614" d="M63 1196v145h490v-145h-490z" />
<glyph unicode="&#xb0;" horiz-adv-x="694" d="M57 1112q-2 123 84 207t209 84h2q129 0 210 -83t81 -200q0 -125 -87 -208t-208 -83q-127 0 -209 83t-82 200zM197 1112q0 -68 44 -114t109.5 -46t109.5 47.5t44 116.5q0 66 -40 116t-114 50h-2q-68 0 -109.5 -51t-41.5 -119z" />
<glyph unicode="&#xb1;" horiz-adv-x="1220" d="M82 0v160h1057v-160h-1057zM82 645v160h444v375h168v-375h445v-160h-445v-383h-168v383h-444z" />
<glyph unicode="&#xb2;" horiz-adv-x="681" d="M29 907v99l127 114q139 127 192 192.5t53 131.5q0 53 -34.5 86t-100.5 33q-92 0 -174 -62l-53 129q113 86 276 86q141 0 217 -69.5t76 -169.5q0 -70 -39 -139.5t-82 -112.5t-129 -117l-57 -47v-6h322v-148h-594z" />
<glyph unicode="&#xb3;" horiz-adv-x="671" d="M18 954l43 133q88 -53 195 -53q76 0 119 34t43 81q0 59 -57.5 90t-137.5 31h-59v119h57q66 0 118 25.5t52 78.5q0 37 -29.5 61.5t-87.5 24.5q-92 0 -180 -53l-41 127q106 63 264 63q135 0 206 -56t71 -142q0 -61 -45 -109.5t-119 -73.5v-4q84 -10 139.5 -63.5 t55.5 -128.5q0 -104 -94.5 -173t-254.5 -69q-166 0 -258 57z" />
<glyph unicode="&#xb4;" horiz-adv-x="614" d="M178 1126l178 304h248l-252 -304h-174z" />
<glyph unicode="&#xb5;" horiz-adv-x="1167" d="M135 -43v1040h252v-571q0 -113 46 -178.5t138 -65.5q70 0 122 41t73 94q14 29 14 78v602h252v-694q0 -74 19.5 -102.5t68.5 -32.5l-14 -176q-35 -14 -90 -15q-168 0 -205 168h-6q-33 -66 -100.5 -113.5t-161.5 -47.5q-121 0 -176 82v-103q0 -268 20 -369h-223 q-29 78 -29 363z" />
<glyph unicode="&#xb6;" horiz-adv-x="1083" d="M66 926q0 88 25.5 164.5t88 146.5t183 109.5t290.5 39.5q186 0 269 -20v-1464h-166v1323h-146v-1323h-166v639h-14q-123 0 -242.5 103.5t-121.5 281.5z" />
<glyph unicode="&#xb7;" horiz-adv-x="483" d="M86 535q0 70 44 115.5t112 45.5q70 0 112.5 -45t42.5 -116.5t-43 -116.5t-112 -45h-2q-68 0 -111 45t-43 117z" />
<glyph unicode="&#xb8;" horiz-adv-x="614" d="M102 -375l37 103q55 -33 111 -33q80 0 80 59q0 68 -160 80l92 172h141l-61 -102q61 -6 104 -46t43 -100q0 -88 -65.5 -130t-167.5 -42q-97 0 -154 39z" />
<glyph unicode="&#xb9;" horiz-adv-x="563" d="M43 1612l213 94h172v-799h-197v635h-4l-155 -72z" />
<glyph unicode="&#xba;" horiz-adv-x="761" d="M43 866q0 154 97.5 249t242.5 95h2q150 0 242 -93t92 -238q-2 -166 -102.5 -255t-237.5 -89q-143 0 -239.5 92t-96.5 239zM225 870q0 -88 44 -147t112 -59q70 0 112 58t42 150q0 80 -41 144.5t-115 64.5h-2q-74 0 -113 -64.5t-39 -146.5z" />
<glyph unicode="&#xbb;" horiz-adv-x="909" d="M47 131l258 385l-258 385h182l254 -385l-254 -385h-182zM414 131l258 385l-258 385h182l254 -385l-254 -385h-182z" />
<glyph unicode="&#xbc;" horiz-adv-x="1636" d="M80 1249l213 94h170v-798h-197v635h-2l-155 -72zM324 -23l763 1377h146l-766 -1377h-143zM860 197v106l371 504h217v-481h115v-129h-115v-197h-182v197h-406zM1044 328l5 -2h217v190q0 8 6 143h-4l-72 -124z" />
<glyph unicode="&#xbd;" horiz-adv-x="1636" d="M53 1249l211 94h172v-798h-196v635h-2l-158 -72zM279 -23l763 1377h146l-764 -1377h-145zM952 0v98l127 115q139 127 192.5 192.5t53.5 131.5q0 53 -35 85.5t-100 32.5q-92 0 -174 -61l-53 129q113 86 276 86q141 0 217 -69.5t76 -170.5q0 -70 -39 -139.5t-82 -112.5 t-129 -116l-57 -47v-7h321v-147h-594z" />
<glyph unicode="&#xbe;" horiz-adv-x="1636" d="M57 592l43 133q88 -53 197 -53q74 0 118 33.5t42 80.5q0 59 -57.5 90t-137.5 31h-59v119h57q66 0 118 25.5t52 78.5q0 37 -28.5 62t-88.5 25q-92 0 -180 -54l-41 125q104 66 264 66q135 0 206 -56.5t71 -142.5q0 -61 -45 -109.5t-119 -72.5v-4q86 -10 140.5 -62.5 t54.5 -130.5q0 -104 -94.5 -172.5t-254.5 -68.5q-164 0 -258 57zM393 -23l764 1377h146l-764 -1377h-146zM881 197v106l370 504h217v-481h117v-129h-117v-197h-182v197h-405zM1065 328l4 -2h217v190q0 53 8 143h-6q-45 -90 -69 -124z" />
<glyph unicode="&#xbf;" horiz-adv-x="876" d="M98 -109q0 70 29 137.5t59.5 107.5t87.5 106q115 131 109 276v43h221l4 -53q12 -168 -125 -336q-129 -154 -129 -244q0 -68 43 -106.5t127 -40.5q119 0 205 63l59 -182q-131 -82 -319 -82q-180 0 -275.5 89t-95.5 222zM342 846q0 72 43 116t113 44h2q68 0 110.5 -45.5 t42.5 -115t-43 -114.5t-112.5 -45t-112.5 45t-43 115z" />
<glyph unicode="&#xc0;" horiz-adv-x="1302" d="M43 0l442 1380h322l448 -1380h-270l-125 391h-438l-119 -391h-260zM322 1700h276l180 -244h-203zM463 582h354l-108 340q-18 57 -70 258h-4q-2 -6 -26.5 -107.5t-39.5 -150.5z" />
<glyph unicode="&#xc1;" horiz-adv-x="1302" d="M43 0l442 1380h322l448 -1380h-270l-125 391h-438l-119 -391h-260zM463 582h354l-108 340q-18 57 -70 258h-4q-2 -6 -26.5 -107.5t-39.5 -150.5zM522 1454l180 246h277l-254 -246h-203z" />
<glyph unicode="&#xc2;" horiz-adv-x="1302" d="M43 0l442 1380h322l448 -1380h-270l-125 391h-438l-119 -391h-260zM352 1454l207 244h191l211 -244h-189l-117 133h-4l-114 -133h-185zM463 582h354l-108 340q-18 57 -70 258h-4q-2 -6 -26.5 -107.5t-39.5 -150.5z" />
<glyph unicode="&#xc3;" horiz-adv-x="1302" d="M43 0l442 1380h322l448 -1380h-270l-125 391h-438l-119 -391h-260zM385 1464q-2 113 38 175.5t112 62.5q53 0 127 -41q61 -39 94 -39q25 0 38 18.5t17 65.5h119q6 -229 -150 -229q-59 0 -131 39q-66 37 -90 36q-45 0 -51 -88h-123zM463 582h354l-108 340q-18 57 -70 258 h-4q-2 -6 -26.5 -107.5t-39.5 -150.5z" />
<glyph unicode="&#xc4;" horiz-adv-x="1302" d="M43 0l442 1380h322l448 -1380h-270l-125 391h-438l-119 -391h-260zM334 1589q0 53 36 88t87 35t84.5 -35t33.5 -88q0 -51 -33.5 -88t-84.5 -37h-2q-51 0 -86 37t-35 88zM463 582h354l-108 340q-18 57 -70 258h-4q-2 -6 -26.5 -107.5t-39.5 -150.5zM739 1589q0 53 35 88 t88 35q51 0 85 -35t34 -88q0 -51 -34 -88t-87 -37h-2q-51 0 -85 37t-34 88z" />
<glyph unicode="&#xc5;" horiz-adv-x="1302" d="M43 0l442 1380h322l448 -1380h-270l-125 391h-438l-119 -391h-260zM428 1624q0 84 59.5 140.5t161.5 56.5h2q102 0 160.5 -55.5t58.5 -139.5q0 -82 -60 -136t-160.5 -54t-161 54t-60.5 134zM463 582h354l-108 340q-18 57 -70 258h-4q-2 -6 -26.5 -107.5t-39.5 -150.5z M553 1624q0 -39 26.5 -68.5t67.5 -29.5q43 0 68.5 28.5t25.5 73.5q0 43 -25.5 73t-68.5 30h-2q-43 0 -67.5 -32t-24.5 -75z" />
<glyph unicode="&#xc6;" horiz-adv-x="1703" d="M2 0l606 1380h969l-2 -206h-574l43 -361h519v-205h-488l51 -401h516v-207h-731l-55 426h-412l-182 -426h-260zM522 629h305l-43 362q-18 141 -24 211h-6l-80 -209z" />
<glyph unicode="&#xc7;" horiz-adv-x="1212" d="M74 674q0 334 206.5 531.5t530.5 197.5q217 0 336 -62l-55 -200q-121 53 -271 53q-217 0 -350 -133t-133 -375q0 -229 128 -363.5t353 -134.5q166 0 275 52l41 -199q-117 -59 -340 -61l-43 -76q63 -12 104 -54.5t41 -105.5q0 -92 -66.5 -136t-161 -44t-163.5 37l37 112 q53 -29 114 -28q78 0 78 57q0 63 -160 82l82 164q-274 33 -428.5 215t-154.5 471z" />
<glyph unicode="&#xc8;" horiz-adv-x="1054" d="M145 0v1380h803v-206h-551v-357h521v-205h-521v-405h582v-207h-834zM236 1700h276l180 -244h-203z" />
<glyph unicode="&#xc9;" horiz-adv-x="1054" d="M145 0v1380h803v-206h-551v-357h521v-205h-521v-405h582v-207h-834zM424 1454l180 246h277l-254 -246h-203z" />
<glyph unicode="&#xca;" horiz-adv-x="1054" d="M145 0v1380h803v-206h-551v-357h521v-205h-521v-405h582v-207h-834zM248 1454l207 244h190l211 -244h-188l-117 133h-4l-115 -133h-184z" />
<glyph unicode="&#xcb;" horiz-adv-x="1054" d="M145 0v1380h803v-206h-551v-357h521v-205h-521v-405h582v-207h-834zM217 1591q0 51 35 87t88 36q51 0 85 -34.5t34 -88.5q0 -51 -34 -88t-85 -37h-2q-51 0 -86 37t-35 88zM623 1591q0 53 34.5 88t87.5 35q51 0 85 -34.5t34 -88.5q0 -51 -33.5 -88t-87.5 -37h-2 q-51 0 -84.5 37t-33.5 88z" />
<glyph unicode="&#xcc;" horiz-adv-x="540" d="M-53 1700h276l180 -244h-202zM145 0v1380h252v-1380h-252z" />
<glyph unicode="&#xcd;" horiz-adv-x="540" d="M139 1454l180 246h277l-254 -246h-203zM145 0v1380h252v-1380h-252z" />
<glyph unicode="&#xce;" horiz-adv-x="540" d="M-33 1454l207 244h191l210 -244h-188l-117 133h-4l-114 -133h-185zM145 0v1380h252v-1380h-252z" />
<glyph unicode="&#xcf;" horiz-adv-x="540" d="M-53 1591q0 51 34.5 87t88.5 36q51 0 84.5 -34.5t33.5 -88.5q0 -51 -33.5 -88t-84.5 -37h-2q-51 0 -86 37t-35 88zM145 0v1380h252v-1380h-252zM352 1591q0 53 35 88t88 35q51 0 85 -34.5t34 -88.5q0 -51 -34 -88t-87 -37h-2q-51 0 -85 37t-34 88z" />
<glyph unicode="&#xd0;" horiz-adv-x="1411" d="M2 602v199h156v565q188 31 401 31q375 0 563 -158q217 -174 217 -516q0 -352 -215 -551q-209 -190 -626 -190q-193 0 -340 18v602h-156zM410 188q35 -6 141 -6q252 0 387 136.5t135 400.5q0 233 -127 357t-364 124q-86 0 -172 -14v-385h317v-199h-317v-414z" />
<glyph unicode="&#xd1;" horiz-adv-x="1384" d="M145 0v1380h287l356 -592q133 -223 236 -462h4q-23 254 -22 573v481h233v-1380h-260l-361 608q-158 268 -247 475l-6 -2q12 -213 12 -587v-494h-232zM426 1464q-2 113 38 175.5t111 62.5q53 0 127 -41q61 -39 95 -39q25 0 38 18.5t17 65.5h119q6 -229 -150 -229 q-59 0 -131 39q-66 37 -90 36q-45 0 -51 -88h-123z" />
<glyph unicode="&#xd2;" horiz-adv-x="1441" d="M74 680q0 319 182 521t473 202q295 0 468 -197.5t173 -500.5q0 -340 -184.5 -534t-476.5 -194q-289 0 -462 197t-173 506zM340 684q0 -217 103.5 -361.5t279.5 -144.5q178 0 279.5 146.5t101.5 369.5q0 209 -100.5 358.5t-280.5 149.5t-281.5 -147.5t-101.5 -370.5z M397 1704h277l180 -244h-203z" />
<glyph unicode="&#xd3;" horiz-adv-x="1441" d="M74 680q0 319 182 521t473 202q295 0 468 -197.5t173 -500.5q0 -340 -184.5 -534t-476.5 -194q-289 0 -462 197t-173 506zM340 684q0 -217 103.5 -361.5t279.5 -144.5q178 0 279.5 146.5t101.5 369.5q0 209 -100.5 358.5t-280.5 149.5t-281.5 -147.5t-101.5 -370.5z M594 1458l180 246h277l-254 -246h-203z" />
<glyph unicode="&#xd4;" horiz-adv-x="1441" d="M74 680q0 319 182 521t473 202q295 0 468 -197.5t173 -500.5q0 -340 -184.5 -534t-476.5 -194q-289 0 -462 197t-173 506zM340 684q0 -217 103.5 -361.5t279.5 -144.5q178 0 279.5 146.5t101.5 369.5q0 209 -100.5 358.5t-280.5 149.5t-281.5 -147.5t-101.5 -370.5z M418 1458l207 244h190l211 -244h-188l-117 133h-4l-115 -133h-184z" />
<glyph unicode="&#xd5;" horiz-adv-x="1441" d="M74 680q0 319 182 521t473 202q295 0 468 -197.5t173 -500.5q0 -340 -184.5 -534t-476.5 -194q-289 0 -462 197t-173 506zM340 684q0 -217 103.5 -361.5t279.5 -144.5q178 0 279.5 146.5t101.5 369.5q0 209 -100.5 358.5t-280.5 149.5t-281.5 -147.5t-101.5 -370.5z M449 1466q-2 113 37.5 175.5t111.5 62.5q53 0 127 -41q61 -39 94 -39q25 0 38 18.5t17 65.5h119q6 -229 -149 -229q-59 0 -131 39q-66 37 -90 36q-45 0 -52 -88h-122z" />
<glyph unicode="&#xd6;" horiz-adv-x="1441" d="M74 680q0 319 182 521t473 202q295 0 468 -197.5t173 -500.5q0 -340 -184.5 -534t-476.5 -194q-289 0 -462 197t-173 506zM340 684q0 -217 103.5 -361.5t279.5 -144.5q178 0 279.5 146.5t101.5 369.5q0 209 -100.5 358.5t-280.5 149.5t-281.5 -147.5t-101.5 -370.5z M397 1591q0 51 35 87t88 36q51 0 85 -34.5t34 -88.5q0 -51 -34 -88t-85 -37h-2q-51 0 -86 37t-35 88zM803 1591q0 53 34.5 88t88.5 35q51 0 84.5 -34.5t33.5 -88.5q0 -51 -33.5 -88t-86.5 -37h-2q-51 0 -85 37t-34 88z" />
<glyph unicode="&#xd7;" horiz-adv-x="1220" d="M82 115l414 424l-414 424l113 114l415 -424l414 424l115 -114l-414 -424l414 -424l-115 -115l-414 422l-413 -422z" />
<glyph unicode="&#xd8;" horiz-adv-x="1441" d="M74 686q0 313 182 515t469 202q184 0 324 -88l116 166l146 -99l-121 -174q180 -193 180 -508q0 -338 -184.5 -530.5t-462.5 -192.5q-178 0 -320 89l-127 -181l-137 111l121 176q-186 192 -186 514zM328 690q0 -162 73 -305l5 2l524 746q-92 72 -207 71 q-184 0 -289.5 -147.5t-105.5 -366.5zM522 246q82 -70 199 -70q182 0 288.5 146.5t106.5 371.5q0 160 -69 291h-5z" />
<glyph unicode="&#xd9;" horiz-adv-x="1363" d="M143 590v790h252v-805q0 -197 76 -296t207 -99q291 0 291 395v805h252v-788q0 -309 -146.5 -462t-404.5 -153q-250 0 -388.5 149t-138.5 464zM365 1700h276l180 -244h-203z" />
<glyph unicode="&#xda;" horiz-adv-x="1363" d="M143 590v790h252v-805q0 -197 76 -296t207 -99q291 0 291 395v805h252v-788q0 -309 -146.5 -462t-404.5 -153q-250 0 -388.5 149t-138.5 464zM551 1454l180 246h277l-254 -246h-203z" />
<glyph unicode="&#xdb;" horiz-adv-x="1363" d="M143 590v790h252v-805q0 -197 76 -296t207 -99q291 0 291 395v805h252v-788q0 -309 -146.5 -462t-404.5 -153q-250 0 -388.5 149t-138.5 464zM397 1454l207 244h191l211 -244h-189l-117 133h-4l-114 -133h-185z" />
<glyph unicode="&#xdc;" horiz-adv-x="1363" d="M143 590v790h252v-805q0 -197 76 -296t207 -99q291 0 291 395v805h252v-788q0 -309 -146.5 -462t-404.5 -153q-250 0 -388.5 149t-138.5 464zM367 1591q0 51 35.5 87t87 36t85 -34.5t33.5 -88.5q0 -51 -33.5 -88t-85.5 -37h-2q-51 0 -85.5 37t-34.5 88zM772 1591 q0 53 35 88t88 35q51 0 85 -34.5t34 -88.5q0 -51 -34 -88t-87 -37h-2q-51 0 -85 37t-34 88z" />
<glyph unicode="&#xdd;" horiz-adv-x="1177" d="M23 1380h286l166 -354q76 -166 119 -274h4q43 109 121 274l166 354h284l-458 -798v-582h-252v575zM475 1448l180 246h277l-254 -246h-203z" />
<glyph unicode="&#xde;" horiz-adv-x="1142" d="M145 0v1380h248v-258q78 10 182 11q242 0 371 -111q125 -109 125 -285q0 -227 -146.5 -340.5t-383.5 -113.5q-61 0 -148 10v-293h-248zM393 492q55 -12 139 -13q141 0 215 64.5t74 173.5q0 111 -71.5 167t-200.5 56q-106 0 -156 -14v-434z" />
<glyph unicode="&#xdf;" horiz-adv-x="1179" d="M135 0v901q0 315 154 457q125 119 338 119q172 0 288.5 -99.5t116.5 -265.5q0 -102 -47 -168q-131 -59 -131 -151q0 -41 19.5 -75t66.5 -81q55 -57 79.5 -86t54.5 -95.5t30 -138.5q0 -154 -105.5 -247t-287.5 -93q-131 0 -217 37l34 189q72 -33 156 -33q78 0 122 38 t44 97q0 82 -90 172q-49 47 -77 80t-54.5 88t-26.5 113q0 166 172 254q16 37 17 80q0 86 -50.5 138t-134.5 52q-217 0 -217 -362v-920h-254z" />
<glyph unicode="&#xe0;" horiz-adv-x="1040" d="M66 274q0 186 155.5 282.5t435.5 94.5v17q0 68 -43 121t-159 53q-152 0 -269 -74l-49 164q143 88 361 88q221 0 316 -118t95 -302v-360q0 -154 15 -240h-228l-16 111h-6q-104 -133 -295 -134q-143 0 -228 88t-85 209zM201 1430h248l178 -304h-176zM315 301 q0 -70 40 -106.5t104 -36.5q72 0 125 40t71 97q8 25 9 55v137q-349 9 -349 -186z" />
<glyph unicode="&#xe1;" horiz-adv-x="1040" d="M66 274q0 186 155.5 282.5t435.5 94.5v17q0 68 -43 121t-159 53q-152 0 -269 -74l-49 164q143 88 361 88q221 0 316 -118t95 -302v-360q0 -154 15 -240h-228l-16 111h-6q-104 -133 -295 -134q-143 0 -228 88t-85 209zM315 301q0 -70 40 -106.5t104 -36.5q72 0 125 40 t71 97q8 25 9 55v137q-349 9 -349 -186zM393 1126l178 304h248l-252 -304h-174z" />
<glyph unicode="&#xe2;" horiz-adv-x="1040" d="M66 274q0 186 155.5 282.5t435.5 94.5v17q0 68 -43 121t-159 53q-152 0 -269 -74l-49 164q143 88 361 88q221 0 316 -118t95 -302v-360q0 -154 15 -240h-228l-16 111h-6q-104 -133 -295 -134q-143 0 -228 88t-85 209zM227 1126l199 304h172l199 -304h-172l-111 187h-4 l-111 -187h-172zM315 301q0 -70 40 -106.5t104 -36.5q72 0 125 40t71 97q8 25 9 55v137q-349 9 -349 -186z" />
<glyph unicode="&#xe3;" horiz-adv-x="1040" d="M66 274q0 186 155.5 282.5t435.5 94.5v17q0 68 -43 121t-159 53q-152 0 -269 -74l-49 164q143 88 361 88q221 0 316 -118t95 -302v-360q0 -154 15 -240h-228l-16 111h-6q-104 -133 -295 -134q-143 0 -228 88t-85 209zM231 1151q-2 115 40 179.5t116 64.5q49 0 131 -43 q66 -37 86 -37q25 0 38 18.5t17 69.5h121q8 -238 -153 -238q-53 0 -135 43q-59 35 -82 35q-47 0 -52 -92h-127zM315 301q0 -70 40 -106.5t104 -36.5q72 0 125 40t71 97q8 25 9 55v137q-349 9 -349 -186z" />
<glyph unicode="&#xe4;" horiz-adv-x="1040" d="M66 274q0 186 155.5 282.5t435.5 94.5v17q0 68 -43 121t-159 53q-152 0 -269 -74l-49 164q143 88 361 88q221 0 316 -118t95 -302v-360q0 -154 15 -240h-228l-16 111h-6q-104 -133 -295 -134q-143 0 -228 88t-85 209zM190 1278q0 53 37 90t92 37q51 0 86 -36t35 -91 q0 -51 -34.5 -88t-88.5 -37h-2q-53 0 -89 37t-36 88zM315 301q0 -70 40 -106.5t104 -36.5q72 0 125 40t71 97q8 25 9 55v137q-349 9 -349 -186zM600 1278q0 53 36 90t89 37t88 -36t35 -91q0 -51 -35 -88t-88 -37h-2q-53 0 -88 37t-35 88z" />
<glyph unicode="&#xe5;" horiz-adv-x="1040" d="M66 274q0 186 155.5 282.5t435.5 94.5v17q0 68 -43 121t-159 53q-152 0 -269 -74l-49 164q143 88 361 88q221 0 316 -118t95 -302v-360q0 -154 15 -240h-228l-16 111h-6q-104 -133 -295 -134q-143 0 -228 88t-85 209zM297 1294q0 88 60.5 144.5t164.5 56.5 q100 0 158.5 -56.5t58.5 -142.5q0 -84 -61.5 -139t-157.5 -55q-100 0 -161.5 55t-61.5 137zM315 301q0 -70 40 -106.5t104 -36.5q72 0 125 40t71 97q8 25 9 55v137q-349 9 -349 -186zM422 1294q0 -39 26.5 -70.5t69.5 -31.5q45 0 72.5 30.5t27.5 75.5q0 43 -27.5 74 t-74.5 31q-43 0 -68.5 -32t-25.5 -77z" />
<glyph unicode="&#xe6;" horiz-adv-x="1617" d="M66 276q0 176 157.5 271.5t435.5 93.5v35q0 18 -8 41.5t-28.5 53.5t-65.5 50.5t-106 20.5q-145 0 -261 -76l-53 162q156 92 334 92q244 0 326 -184h4q119 184 344 184q106 0 188 -45t127 -118t67.5 -153.5t22.5 -162.5q0 -31 -6 -99h-649q0 -129 81 -201.5t212 -72.5 q150 0 274 53l39 -172q-141 -72 -348 -72q-129 0 -231.5 51.5t-149.5 145.5h-6q-113 -197 -371 -197q-154 0 -241.5 87t-87.5 212zM313 297q0 -66 42 -102.5t106 -36.5q72 0 123 39t73 96q8 25 9 65v123q-152 4 -252.5 -39t-100.5 -145zM895 616h420q2 80 -45 157t-154 77 q-102 0 -160.5 -76t-60.5 -158z" />
<glyph unicode="&#xe7;" horiz-adv-x="919" d="M72 487q0 231 149.5 382t405.5 151q141 0 243 -47l-45 -189q-86 39 -190 39q-141 0 -224 -92t-81 -231q0 -150 86 -236t219 -86q104 0 199 39l34 -186q-96 -49 -243 -51l-43 -76q61 -14 103 -54t42 -104q0 -94 -66.5 -138t-162.5 -44q-100 0 -160 39l35 110 q47 -29 112 -28q82 0 82 57q-2 66 -161 80l83 166q-193 27 -305 160.5t-112 338.5z" />
<glyph unicode="&#xe8;" horiz-adv-x="1056" d="M72 483q0 221 130 379t357 158q117 0 204 -44t134 -118t69.5 -154.5t22.5 -168.5q0 -61 -8 -107h-668q4 -127 91.5 -192.5t216.5 -65.5q158 0 276 45l37 -174q-158 -63 -348 -64q-240 0 -377 137.5t-137 368.5zM258 1430h248l178 -304h-176zM313 604h439q2 90 -46.5 167 t-160.5 77q-106 0 -164 -76t-68 -168z" />
<glyph unicode="&#xe9;" horiz-adv-x="1056" d="M72 483q0 221 130 379t357 158q117 0 204 -44t134 -118t69.5 -154.5t22.5 -168.5q0 -61 -8 -107h-668q4 -127 91.5 -192.5t216.5 -65.5q158 0 276 45l37 -174q-158 -63 -348 -64q-240 0 -377 137.5t-137 368.5zM313 604h439q2 90 -46.5 167t-160.5 77q-106 0 -164 -76 t-68 -168zM440 1126l178 304h248l-252 -304h-174z" />
<glyph unicode="&#xea;" horiz-adv-x="1056" d="M72 483q0 221 130 379t357 158q117 0 204 -44t134 -118t69.5 -154.5t22.5 -168.5q0 -61 -8 -107h-668q4 -127 91.5 -192.5t216.5 -65.5q158 0 276 45l37 -174q-158 -63 -348 -64q-240 0 -377 137.5t-137 368.5zM266 1126l199 304h172l199 -304h-172l-111 187h-4 l-111 -187h-172zM313 604h439q2 90 -46.5 167t-160.5 77q-106 0 -164 -76t-68 -168z" />
<glyph unicode="&#xeb;" horiz-adv-x="1056" d="M72 483q0 221 130 379t357 158q117 0 204 -44t134 -118t69.5 -154.5t22.5 -168.5q0 -61 -8 -107h-668q4 -127 91.5 -192.5t216.5 -65.5q158 0 276 45l37 -174q-158 -63 -348 -64q-240 0 -377 137.5t-137 368.5zM233 1278q0 53 37 90t92 37q51 0 86 -36t35 -91 q0 -51 -34.5 -88t-88.5 -37h-2q-53 0 -89 37t-36 88zM313 604h439q2 90 -46.5 167t-160.5 77q-106 0 -164 -76t-68 -168zM643 1278q0 53 36 90t89 37t88 -36t35 -91q0 -51 -35 -88t-88 -37h-2q-53 0 -88 37t-35 88z" />
<glyph unicode="&#xec;" horiz-adv-x="524" d="M-59 1430h247l179 -304h-177zM135 0v997h254v-997h-254z" />
<glyph unicode="&#xed;" horiz-adv-x="524" d="M135 0v997h254v-997h-254zM143 1126l179 304h247l-252 -304h-174z" />
<glyph unicode="&#xee;" horiz-adv-x="524" d="M-23 1126l199 304h172l199 -304h-172l-111 187h-4l-110 -187h-173zM135 0v997h254v-997h-254z" />
<glyph unicode="&#xef;" horiz-adv-x="524" d="M-68 1278q0 53 37 90t92 37q51 0 86 -36t35 -91q0 -51 -34.5 -88t-88.5 -37h-2q-53 0 -89 37t-36 88zM135 0v997h254v-997h-254zM342 1278q0 53 36 90t89 37t88 -36t35 -91q0 -51 -35 -88t-88 -37h-2q-53 0 -88 37t-35 88z" />
<glyph unicode="&#xf0;" horiz-adv-x="1146" d="M72 485q0 221 136 355.5t331 138.5q106 4 184 -61l4 6q-84 125 -207 213l-293 -131l-47 108l226 103q-90 61 -203 108l110 148q150 -59 308 -164l272 123l53 -107l-215 -98q164 -133 254 -316q86 -170 86 -389q0 -266 -147.5 -405.5t-354.5 -139.5q-215 0 -356 139.5 t-141 368.5zM332 487q0 -139 65.5 -233t171.5 -94h2q113 0 176.5 93t63.5 243q0 170 -57 243q-70 80 -179 80q-123 0 -183 -102.5t-60 -229.5z" />
<glyph unicode="&#xf1;" horiz-adv-x="1171" d="M127 997h221l12 -149h7q37 68 119.5 120t197.5 52q147 0 250.5 -104.5t103.5 -323.5v-592h-252v563q0 115 -46 183.5t-144 68.5q-72 0 -123 -43t-74 -104q-10 -29 -10 -82v-586h-254v700q0 182 -8 297zM311 1151q-2 115 40 179.5t116 64.5q49 0 131 -43q66 -37 86 -37 q25 0 38 18.5t17 69.5h121q8 -238 -153 -238q-53 0 -136 43q-59 35 -82 35q-47 0 -51 -92h-127z" />
<glyph unicode="&#xf2;" horiz-adv-x="1155" d="M72 492q0 242 143 385t373 143q221 0 358 -142.5t137 -369.5q0 -258 -151.5 -394.5t-360.5 -136.5q-217 0 -358 139.5t-141 375.5zM283 1430h247l179 -304h-177zM332 498q0 -147 67.5 -242.5t180.5 -95.5q106 0 174.5 95t68.5 247q0 133 -61.5 233.5t-179.5 100.5 q-125 0 -187.5 -99.5t-62.5 -238.5z" />
<glyph unicode="&#xf3;" horiz-adv-x="1155" d="M72 492q0 242 143 385t373 143q221 0 358 -142.5t137 -369.5q0 -258 -151.5 -394.5t-360.5 -136.5q-217 0 -358 139.5t-141 375.5zM332 498q0 -147 67.5 -242.5t180.5 -95.5q106 0 174.5 95t68.5 247q0 133 -61.5 233.5t-179.5 100.5q-125 0 -187.5 -99.5t-62.5 -238.5z M453 1126l178 304h248l-252 -304h-174z" />
<glyph unicode="&#xf4;" horiz-adv-x="1155" d="M72 492q0 242 143 385t373 143q221 0 358 -142.5t137 -369.5q0 -258 -151.5 -394.5t-360.5 -136.5q-217 0 -358 139.5t-141 375.5zM293 1126l199 304h172l198 -304h-172l-110 187h-5l-110 -187h-172zM332 498q0 -147 67.5 -242.5t180.5 -95.5q106 0 174.5 95t68.5 247 q0 133 -61.5 233.5t-179.5 100.5q-125 0 -187.5 -99.5t-62.5 -238.5z" />
<glyph unicode="&#xf5;" horiz-adv-x="1155" d="M72 492q0 242 143 385t373 143q221 0 358 -142.5t137 -369.5q0 -258 -151.5 -394.5t-360.5 -136.5q-217 0 -358 139.5t-141 375.5zM303 1151q-2 115 40 179.5t116 64.5q49 0 131 -43q66 -37 86 -37q25 0 38 18.5t17 69.5h121q8 -238 -154 -238q-53 0 -135 43 q-59 35 -82 35q-47 0 -51 -92h-127zM332 498q0 -147 67.5 -242.5t180.5 -95.5q106 0 174.5 95t68.5 247q0 133 -61.5 233.5t-179.5 100.5q-125 0 -187.5 -99.5t-62.5 -238.5z" />
<glyph unicode="&#xf6;" horiz-adv-x="1155" d="M72 492q0 242 143 385t373 143q221 0 358 -142.5t137 -369.5q0 -258 -151.5 -394.5t-360.5 -136.5q-217 0 -358 139.5t-141 375.5zM248 1278q0 53 37 90t92 37q51 0 86 -36t35 -91q0 -51 -35 -88t-88 -37h-2q-53 0 -89 37t-36 88zM332 498q0 -147 67.5 -242.5 t180.5 -95.5q106 0 174.5 95t68.5 247q0 133 -61.5 233.5t-179.5 100.5q-125 0 -187.5 -99.5t-62.5 -238.5zM657 1278q0 53 36 90t89.5 37t88 -36t34.5 -91q0 -51 -34.5 -88t-88.5 -37h-2q-53 0 -88 37t-35 88z" />
<glyph unicode="&#xf7;" horiz-adv-x="1220" d="M82 467v160h1057v-160h-1057zM479 186q0 61 36 98.5t95.5 37.5t95 -37t35.5 -99q0 -59 -35.5 -96t-95.5 -37h-2q-57 0 -93 37t-36 96zM479 905q0 61 36 98t95.5 37t95 -36.5t35.5 -98.5q0 -59 -35.5 -96t-95.5 -37h-2q-57 0 -93 37t-36 96z" />
<glyph unicode="&#xf8;" horiz-adv-x="1155" d="M72 496q0 238 142 381t366 143h2q135 0 245 -62l91 134l96 -68l-90 -133q160 -143 159 -387q0 -254 -149.5 -390.5t-353.5 -136.5q-141 0 -246 60l-94 -135l-93 73l91 129q-166 140 -166 392zM315 498q0 -119 54 -201h4l342 491q-53 47 -140 48q-129 0 -194.5 -101.5 t-65.5 -236.5zM444 207q53 -47 131 -47q121 0 193 94t72 244q0 111 -49 194h-7z" />
<glyph unicode="&#xf9;" horiz-adv-x="1165" d="M131 412v585h252v-542q0 -272 186 -273q70 0 120 40t73 95q14 39 14 78v602h252v-698q0 -135 8 -299h-221l-12 152h-4q-104 -174 -320 -175q-152 0 -250 104t-98 331zM276 1430h248l178 -304h-176z" />
<glyph unicode="&#xfa;" horiz-adv-x="1165" d="M131 412v585h252v-542q0 -272 186 -273q70 0 120 40t73 95q14 39 14 78v602h252v-698q0 -135 8 -299h-221l-12 152h-4q-104 -174 -320 -175q-152 0 -250 104t-98 331zM473 1126l178 304h248l-252 -304h-174z" />
<glyph unicode="&#xfb;" horiz-adv-x="1165" d="M131 412v585h252v-542q0 -272 186 -273q70 0 120 40t73 95q14 39 14 78v602h252v-698q0 -135 8 -299h-221l-12 152h-4q-104 -174 -320 -175q-152 0 -250 104t-98 331zM297 1126l199 304h172l198 -304h-172l-110 187h-4l-111 -187h-172z" />
<glyph unicode="&#xfc;" horiz-adv-x="1165" d="M131 412v585h252v-542q0 -272 186 -273q70 0 120 40t73 95q14 39 14 78v602h252v-698q0 -135 8 -299h-221l-12 152h-4q-104 -174 -320 -175q-152 0 -250 104t-98 331zM258 1278q0 53 37 90t92 37q51 0 86 -36t35 -91q0 -51 -35 -88t-88 -37h-2q-53 0 -89 37t-36 88z M668 1278q0 53 35.5 90t89 37t88 -36t34.5 -91q0 -51 -34.5 -88t-87.5 -37h-2q-53 0 -88 37t-35 88z" />
<glyph unicode="&#xfd;" horiz-adv-x="1024" d="M16 997h277l180 -534q27 -80 55 -195h7l26 97l27 100l155 532h271l-250 -680q-102 -276 -180 -419.5t-168 -221.5q-123 -111 -264 -129l-58 213q76 18 148 70q84 55 137 158q16 29 16 45q0 20 -14 49zM420 1126l178 304h248l-252 -304h-174z" />
<glyph unicode="&#xfe;" horiz-adv-x="1198" d="M135 -406v1784h252v-520h4q104 162 316 162q174 4 296.5 -137.5t122.5 -372.5q0 -258 -136 -395.5t-316 -137.5q-188 0 -283 136h-4v-519h-252zM387 401q0 -49 25 -94q27 -61 83 -98t123 -37q115 0 183.5 90t68.5 244q0 135 -65.5 225t-177.5 90q-74 0 -133.5 -41 t-85.5 -110q-20 -49 -21 -92v-177z" />
<glyph unicode="&#xff;" horiz-adv-x="1024" d="M16 997h277l180 -534q27 -80 55 -195h7l26 97l27 100l155 532h271l-250 -680q-102 -276 -180 -419.5t-168 -221.5q-123 -111 -264 -129l-58 213q76 18 148 70q84 55 137 158q16 29 16 45q0 20 -14 49zM205 1278q0 53 37 90t92 37q51 0 86 -36t35 -91q0 -51 -35 -88 t-88 -37h-2q-53 0 -89 37t-36 88zM614 1278q0 53 36 90t89.5 37t88 -36t34.5 -91q0 -51 -34.5 -88t-88.5 -37h-2q-53 0 -88 37t-35 88z" />
<glyph unicode="&#x152;" horiz-adv-x="1878" d="M74 680q0 332 189.5 527.5t498.5 195.5q59 0 182 -10q102 -12 131 -13h694v-206h-550v-357h520v-205h-520v-405h581v-207h-745q-33 0 -131 -12q-123 -10 -170 -11q-324 0 -502 200t-178 503zM340 688q-2 -229 120 -369.5t339 -140.5q102 0 168 27v966q-76 31 -187 31 q-197 0 -319.5 -139t-120.5 -375z" />
<glyph unicode="&#x153;" horiz-adv-x="1773" d="M72 495.5q0 235.5 139 380t354 144.5q119 0 216.5 -53.5t146.5 -151.5h4q119 205 356 205q113 0 199 -45t132 -118t67.5 -153.5t21.5 -166.5q0 -63 -8 -105h-651q2 -123 86 -193.5t213 -70.5q135 0 272 55l39 -174q-133 -72 -346 -72q-262 0 -379 203h-6 q-57 -100 -158.5 -151.5t-220.5 -51.5q-205 0 -341 141.5t-136 377zM332 498q0 -145 66.5 -241.5t174.5 -96.5q111 0 175.5 93t64.5 247q0 139 -60.5 237.5t-177.5 98.5h-2q-125 0 -183 -101.5t-58 -236.5zM1047 606h423q2 90 -44 166t-160 76q-102 0 -157.5 -76t-61.5 -166 z" />
<glyph unicode="&#x178;" horiz-adv-x="1177" d="M23 1380h286l166 -354q76 -166 119 -274h4q43 109 121 274l166 354h284l-458 -798v-582h-252v575zM283 1583q0 51 34.5 87t88.5 36q51 0 84.5 -35t33.5 -88q0 -51 -33.5 -88t-84.5 -37h-3q-51 0 -85.5 37t-34.5 88zM688 1583q0 53 35 88t88 35q51 0 85 -35t34 -88 q0 -51 -34 -88t-87 -37h-2q-51 0 -85 37t-34 88z" />
<glyph unicode="&#x2c6;" horiz-adv-x="614" d="M23 1126l198 304h172l199 -304h-172l-111 187h-4l-110 -187h-172z" />
<glyph unicode="&#x2dc;" horiz-adv-x="614" d="M33 1151q-2 115 40 179.5t115 64.5q49 0 131 -43q66 -37 87 -37q25 0 38 18.5t17 69.5h121q8 -238 -154 -238q-53 0 -135 43q-59 35 -82 35q-47 0 -51 -92h-127z" />
<glyph unicode="&#x2013;" horiz-adv-x="1024" d="M61 440v160h902v-160h-902z" />
<glyph unicode="&#x2014;" horiz-adv-x="2048" d="M61 440v160h1926v-160h-1926z" />
<glyph unicode="&#x2018;" horiz-adv-x="483" d="M61 879q98 317 222 524l155 14q-90 -252 -133 -518z" />
<glyph unicode="&#x2019;" horiz-adv-x="483" d="M61 879q92 260 132 520l243 18q-92 -313 -221 -522z" />
<glyph unicode="&#x201a;" horiz-adv-x="483" d="M37 -225q94 252 133 518l244 20q-90 -305 -221 -524z" />
<glyph unicode="&#x201c;" horiz-adv-x="837" d="M61 879q94 317 222 524l153 14q-90 -252 -133 -518zM418 879q94 317 221 524l156 14q-94 -252 -133 -518z" />
<glyph unicode="&#x201d;" horiz-adv-x="837" d="M59 879q90 254 134 520l243 18q-96 -313 -221 -522zM416 879q96 270 133 520l244 18q-90 -301 -222 -522z" />
<glyph unicode="&#x201e;" horiz-adv-x="843" d="M35 -225q94 252 133 518l244 20q-94 -317 -222 -524zM393 -225q90 252 133 518l244 20q-98 -322 -223 -524z" />
<glyph unicode="&#x2022;" horiz-adv-x="641" d="M78 535q-2 102 69.5 172.5t171.5 70.5q102 0 173 -70.5t71 -173t-70.5 -173t-173.5 -70.5h-2q-100 0 -169.5 70t-69.5 174z" />
<glyph unicode="&#x2026;" horiz-adv-x="2048" d="M186 139q0 72 43 117t113 45t112 -45t44 -117q0 -70 -44 -116t-114 -46h-2q-66 0 -110 46t-42 116zM868 139.5q0 69.5 44 115.5t112 46q70 0 113 -45t43 -117q0 -70 -43 -116t-113 -46h-2q-68 0 -111 46.5t-43 116zM1552 139q0 72 43 117t113 45t112 -45t44 -117 q0 -70 -43 -116t-113 -46h-2q-68 0 -112 46t-42 116z" />
<glyph unicode="&#x2039;" horiz-adv-x="540" d="M55 516l252 385h187l-258 -385l258 -385h-185z" />
<glyph unicode="&#x203a;" horiz-adv-x="540" d="M47 131l256 385l-256 385h182l254 -385l-254 -385h-182z" />
<glyph unicode="&#x20ac;" d="M14 494v124h115v33q0 29 4 74h-119v127h138q37 186 153 309q174 193 443 193q162 0 292 -64l-51 -190q-102 55 -229 55q-160 0 -260 -113q-63 -68 -90 -190h536v-127h-561q-4 -23 -4 -72v-35h565v-124h-543q20 -127 89 -201q102 -111 274 -111q127 0 242 60l43 -183 q-135 -82 -314 -82q-297 0 -463 211q-102 117 -129 306h-131z" />
<glyph unicode="&#x2122;" horiz-adv-x="1302" d="M57 1264v116h480v-116h-168v-443h-144v443h-168zM573 821l37 559h219l64 -198q12 -43 35 -162h4q16 84 37 162l67 198h207l35 -559h-139l-17 283q0 117 -2 190h-8q-14 -63 -47 -194l-78 -269h-139l-72 273q-2 8 -16.5 80.5l-22.5 109.5h-8q0 -72 -4 -190l-16 -283h-136z " />
<glyph unicode="&#xe000;" horiz-adv-x="995" d="M0 995h995v-995h-995v995z" />
<glyph unicode="&#xfb01;" horiz-adv-x="1144" d="M29 809v188h135v47q0 201 130 317t353 116q176 0 275 -64l-56 -190q-94 53 -219 53q-233 0 -233 -238v-41h596v-997h-254v809h-340v-809h-252v809h-135z" />
<glyph unicode="&#xfb02;" horiz-adv-x="1144" d="M29 809v188h135v43q0 207 147 330q131 106 353 107q207 0 346 -76v-1401h-254v1264q-41 23 -131 22q-109 0 -160 -67.5t-51 -176.5v-45h204v-188h-202v-809h-252v809h-135z" />
<glyph unicode="&#xfb03;" horiz-adv-x="1763" d="M29 809v188h135v25q0 209 125 328q104 100 278 100q92 0 174 -39l-59 -182q-49 27 -107 26q-68 0 -106 -43q-55 -57 -55 -184v-31h368v47q0 201 131 317t353 116q160 0 264 -58l-60 -190q-90 47 -204 47q-231 0 -232 -238v-41h594v-997h-252v809h-340v-809h-254v809h-366 v-809h-252v809h-135z" />
<glyph unicode="&#xfb04;" horiz-adv-x="1763" d="M29 809v188h135v17q0 215 121 329q111 106 299 107q84 0 159 -33l-57 -186q-53 25 -106 24q-70 0 -111 -45q-55 -55 -55 -180v-33h368v43q0 205 148 330q131 106 352 107q211 0 346 -76v-1401h-252v1264q-41 23 -131 22q-109 0 -160 -67.5t-51 -176.5v-45h205v-188h-203 v-809h-254v809h-366v-809h-252v809h-135z" />
</font>
</defs>
</svg>
